<svg id="Layer_1" data-name="Layer 1" xmlns="http://www.w3.org/2000/svg" viewBox="0 0 218 218"><defs><style>.cls-1{fill:#487cef;}.cls-2{fill:#dff6f7;}</style></defs><title>touch-icon-iphone_1</title><rect class="cls-1" width="218" height="218"/><path class="cls-2" d="M135.63,60a49.16,49.16,0,0,0-11.82,1.44l-.11,0a3.3,3.3,0,0,0-1.6,5.59l.51.51A57.78,57.78,0,0,1,136.07,89l.34,1a3.31,3.31,0,1,0,6.27-2.09c-.12-.37-.25-.73-.38-1.1A64.39,64.39,0,0,0,130.9,66.93a41.4,41.4,0,0,1,9.37,0,71.13,71.13,0,0,1,9,17.38c.35,1,.69,2,1,3a2.8,2.8,0,1,0,5.35-1.63c-.33-1.1-.7-2.21-1.08-3.28A76.64,76.64,0,0,0,148,68.5a42.15,42.15,0,0,1,10.65,5c1,2.15,1.87,4.36,2.65,6.58.59,1.66,1.12,3.35,1.6,5a2.8,2.8,0,0,0,5.38-1.53c-.22-.76-.45-1.53-.69-2.3a42.33,42.33,0,1,1-74.29,27.82c.07-1.35.65-4.38,4.3-4.38,2.25,0,5.62,3.4,8.59,6.4,4.3,4.34,8.76,8.82,14.23,8.82a10.63,10.63,0,0,0,8.06-3.13,11.4,11.4,0,0,0,2.85-7.85,49.11,49.11,0,0,0-20.4-39.7h0A49,49,0,1,0,82.37,158a49.14,49.14,0,0,0,12-1.49c.1,0,.19-.07.29-.11l.24-.09a3.26,3.26,0,0,0,.33-.18l.25-.15a3.2,3.2,0,0,0,.26-.22c.06-.06.14-.1.2-.16l.05-.07.13-.17a3.32,3.32,0,0,0,.27-.37h0a3.3,3.3,0,0,0-.52-4.06l-.51-.51A57.79,57.79,0,0,1,81.93,129q-.17-.49-.34-1a3.31,3.31,0,0,0-6.28,2.09q.18.55.38,1.1a64.38,64.38,0,0,0,11.4,19.84,41.23,41.23,0,0,1-9.37,0,71.11,71.11,0,0,1-9-17.38c-.36-1-.69-2-1-3a2.8,2.8,0,1,0-5.35,1.63c.33,1.09.69,2.2,1.08,3.29A76.59,76.59,0,0,0,70,149.5a42.16,42.16,0,0,1-10.65-5c-1-2.15-1.87-4.36-2.65-6.58-.59-1.65-1.12-3.35-1.6-5a2.8,2.8,0,0,0-5.38,1.53c.22.76.45,1.53.69,2.3A42.33,42.33,0,0,1,107.07,74.6h0A42.48,42.48,0,0,1,124.71,109v.18a5,5,0,0,1-1,3.06,4.34,4.34,0,0,1-3.26,1.06c-2.72,0-6.34-3.65-9.54-6.87-4.08-4.11-8.29-8.35-13.29-8.35-7.79,0-10.79,6.47-10.91,10.82V109a49,49,0,1,0,49-49Z"/></svg>