<?xml version="1.0" encoding="UTF-8" standalone="no"?>
<svg width="24px" height="24px" viewBox="0 0 24 24" version="1.1" xmlns="http://www.w3.org/2000/svg" xmlns:xlink="http://www.w3.org/1999/xlink">
    <!-- Generator: Sketch 40.1 (33804) - http://www.bohemiancoding.com/sketch -->
    <title>account-icon-filled</title>
    <desc>Created with Sketch.</desc>
    <defs>
        <polygon id="path-1" points="0.0437023256 8.93023256 19.4909581 8.93023256 19.4909581 0.289339535 0.0437023256 0.289339535 0.0437023256 8.93023256"></polygon>
    </defs>
    <g id="Symbols" stroke="none" stroke-width="1" fill="none" fill-rule="evenodd">
        <g id="account-icon-filled">
            <g id="Group-3" transform="translate(2.232558, 15.069767)">
                <mask id="mask-2" fill="white">
                    <use xlink:href="#path-1"></use>
                </mask>
                <g id="Clip-2"></g>
                <path d="M4.01933023,7.45975814 C4.03942326,7.47092093 4.06007442,7.48208372 4.08016744,7.49324651 C4.40053953,7.66626977 4.72984186,7.82533953 5.06695814,7.96933953 C5.10044651,7.98329302 5.13393488,7.99613023 5.16742326,8.01008372 C5.4928186,8.14571163 5.82491163,8.26850233 6.16370233,8.37566512 C6.18156279,8.38124651 6.19886512,8.38794419 6.21672558,8.39352558 C6.5488186,8.4967814 6.88928372,8.58106047 7.23365581,8.65529302 C7.3039814,8.67092093 7.37430698,8.68654884 7.4451907,8.70050233 C7.7811907,8.76636279 8.12165581,8.81938605 8.46714419,8.8567814 C8.53244651,8.86347907 8.59774884,8.86850233 8.66305116,8.87408372 C9.02751628,8.90757209 9.39477209,8.93045581 9.7676093,8.93045581 C10.1404465,8.93045581 10.5077023,8.90757209 10.8716093,8.87408372 C10.9369116,8.86850233 11.0027721,8.86347907 11.0675163,8.8567814 C11.4130047,8.81938605 11.7534698,8.76636279 12.0894698,8.70050233 C12.1603535,8.68654884 12.2306791,8.67092093 12.3015628,8.65529302 C12.6453767,8.58106047 12.9858419,8.4967814 13.318493,8.39352558 C13.3363535,8.38794419 13.3536558,8.38124651 13.3715163,8.37566512 C13.710307,8.26850233 14.0418419,8.14571163 14.3672372,8.01008372 C14.4007256,7.99613023 14.4347721,7.98329302 14.4677023,7.96933953 C14.8048186,7.82533953 15.1341209,7.66626977 15.454493,7.49324651 C15.4751442,7.48208372 15.4952372,7.47092093 15.5153302,7.45975814 C17.0909581,6.59631628 18.4444465,5.38347907 19.4909581,3.93454884 C17.8299349,2.11836279 15.4394233,0.83464186 12.6922605,0.289339535 C10.9352372,1.37324651 8.5999814,1.37324651 6.8424,0.289339535 C4.09579535,0.83464186 1.70528372,2.11836279 0.0437023256,3.93454884 C1.09077209,5.38347907 2.44370233,6.59631628 4.01933023,7.45975814" id="Fill-1" fill="#000100" mask="url(#mask-2)"></path>
            </g>
            <path d="M14.4971721,14.3066791 C15.7295442,13.4739349 16.4651721,12.0897488 16.4651721,10.6045395 C16.4651721,8.14258605 14.4620093,6.13942326 12.0000558,6.13942326 C9.53810233,6.13942326 7.53493953,8.14258605 7.53493953,10.6045395 C7.53493953,12.0897488 8.27056744,13.4739349 9.50293953,14.3066791 C10.9797767,15.3051907 13.0203349,15.3051907 14.4971721,14.3066791" id="Fill-4" fill="#000100"></path>
            <path d="M24,12 C24,5.38325581 18.6167442,0 12,0 C5.38325581,0 0,5.38325581 0,12 C0,14.208 0.610046512,16.272 1.65488372,18.0507907 C3.27851163,16.3624186 5.47088372,15.1172093 7.98251163,14.4675349 C6.99237209,13.4383256 6.41860465,12.0636279 6.41860465,10.6046512 C6.41860465,7.52706977 8.9224186,5.02325581 12,5.02325581 C15.0775814,5.02325581 17.5813953,7.52706977 17.5813953,10.6046512 C17.5813953,12.0636279 17.0076279,13.4383256 16.0174884,14.4675349 C18.5291163,15.1166512 20.7214884,16.3624186 22.3451163,18.0507907 C23.3899535,16.272 24,14.208 24,12" id="Fill-6" fill="#000100"></path>
        </g>
    </g>
</svg>