<?xml version="1.0" encoding="UTF-8" standalone="no"?>
<svg width="26px" height="26px" viewBox="0 0 26 26" version="1.1" xmlns="http://www.w3.org/2000/svg" xmlns:xlink="http://www.w3.org/1999/xlink">
    <!-- Generator: Sketch 40.1 (33804) - http://www.bohemiancoding.com/sketch -->
    <title>account-icon</title>
    <desc>Created with Sketch.</desc>
    <defs></defs>
    <g id="Symbols" stroke="none" stroke-width="1" fill="none" fill-rule="evenodd">
        <g id="tab-bar-new" transform="translate(-332.000000, -11.000000)" stroke="#19367F">
            <g id="account-icon" transform="translate(333.000000, 12.000000)">
                <path d="M24,12 C24,18.6272 18.6272,24 12,24 C5.3728,24 0,18.6272 0,12 C0,5.3728 5.3728,0 12,0 C18.6272,0 24,5.3728 24,12 L24,12 Z" id="Stroke-1"></path>
                <path d="M14.6848533,14.64608 C13.9184533,15.1639467 12.99472,15.46688 12.0000533,15.46688 C11.0053867,15.46688 10.0816533,15.1639467 9.31525333,14.64608 C6.28858667,15.2002133 3.69658667,16.66528 2.02192,18.66688 C4.17498667,21.8823467 7.83952,24.0002133 12.0000533,24.0002133 C16.1600533,24.0002133 19.82512,21.8823467 21.9776533,18.66688 C20.3029867,16.66528 17.7109867,15.2002133 14.6848533,14.64608 L14.6848533,14.64608 Z" id="Stroke-3"></path>
                <path d="M14.6848533,14.64608 C15.96112,13.7831467 16.8000533,12.32288 16.8000533,10.66688 C16.8000533,8.01568 14.65072,5.86688 12.0000533,5.86688 C9.34885333,5.86688 7.20005333,8.01568 7.20005333,10.66688 C7.20005333,12.32288 8.03898667,13.7831467 9.31525333,14.64608" id="Stroke-5"></path>
            </g>
        </g>
    </g>
</svg>