<svg id="Layer_1" data-name="Layer 1" xmlns="http://www.w3.org/2000/svg" viewBox="0 0 31 31"><defs><style>.cls-1{fill:#37464b;}.cls-1,.cls-2{fill-rule:evenodd;}.cls-2,.cls-3,.cls-4{fill:none;stroke-linecap:round;}.cls-2,.cls-3{stroke:#1d1d1b;}.cls-2,.cls-4{stroke-miterlimit:10;}.cls-3{stroke-linejoin:round;}.cls-4{stroke:#979795;}</style></defs><title>add-reaction</title><path class="cls-1" d="M12.51,14.28c0,.74-.43,1.35-1,1.35s-1-.6-1-1.35.43-1.35,1-1.35,1,.6,1,1.35"/><path class="cls-1" d="M19.84,14.28c0,.74-.43,1.35-1,1.35s-1-.6-1-1.35.43-1.35,1-1.35,1,.6,1,1.35"/><path class="cls-1" d="M9.46,17.57a45.72,45.72,0,0,0,5.78.67,39.46,39.46,0,0,0,5.51-.67,5.39,5.39,0,0,1-5.65,4.34,5.39,5.39,0,0,1-5.65-4.34"/><path class="cls-2" d="M19.94,6.72a9.74,9.74,0,1,0,5,7.35"/><line class="cls-3" x1="23" y1="7.5" x2="23" y2="12.5"/><line class="cls-3" x1="25.5" y1="10" x2="20.5" y2="10"/><circle class="cls-4" cx="15.5" cy="15.5" r="15"/></svg>