<svg id="Layer_1" data-name="Layer 1" xmlns="http://www.w3.org/2000/svg" viewBox="0 0 31 31"><defs><style>.cls-1{fill:#37464b;}</style></defs><title>add-reaction-filled</title><path class="cls-1" d="M15.24,6a9.23,9.23,0,1,0,6.53,2.7A9.21,9.21,0,0,0,15.24,6Zm3.65,6.93c.53,0,1,.6,1,1.35s-.43,1.35-1,1.35-1-.6-1-1.35S18.36,12.94,18.89,12.94Zm-7.33,0c.53,0,1,.6,1,1.35s-.43,1.35-1,1.35-1-.6-1-1.35S11,12.94,11.56,12.94Zm3.54,9a5.39,5.39,0,0,1-5.65-4.34,45.72,45.72,0,0,0,5.78.67,39.46,39.46,0,0,0,5.51-.67A5.39,5.39,0,0,1,15.1,21.91Z"/><path class="cls-1" d="M15.5,0A15.5,15.5,0,1,0,31,15.5,15.52,15.52,0,0,0,15.5,0Zm7,22.48A10.24,10.24,0,1,1,22.48,8,10.21,10.21,0,0,1,22.48,22.48Z"/></svg>