<svg id="Layer_1" data-name="Layer 1" xmlns="http://www.w3.org/2000/svg" viewBox="0 0 24.72 26.25"><defs><style>.cls-1,.cls-2,.cls-4{fill:none;}.cls-1,.cls-2,.cls-3,.cls-4{stroke:#1d1d1b;stroke-miterlimit:10;}.cls-2,.cls-4{stroke-linecap:round;}.cls-2{stroke-width:1.5px;}.cls-3{fill:#1d1e1b;}</style></defs><title>calendar</title><path class="cls-1" d="M.5,8H24.22a0,0,0,0,1,0,0V24.87a.88.88,0,0,1-.88.88h-22a.88.88,0,0,1-.88-.88V8A0,0,0,0,1,.5,8Z"/><line class="cls-2" x1="5.11" y1="0.75" x2="5.11" y2="5.36"/><line class="cls-2" x1="19.61" y1="0.75" x2="19.61" y2="5.36"/><path class="cls-3" d="M1.29,3.59H23.43a.79.79,0,0,1,.79.79V8a0,0,0,0,1,0,0H.5a0,0,0,0,1,0,0V4.38A.79.79,0,0,1,1.29,3.59Z"/><line class="cls-4" x1="3.76" y1="12.29" x2="20.97" y2="12.29"/><line class="cls-4" x1="3.76" y1="16.74" x2="20.97" y2="16.74"/><line class="cls-4" x1="3.76" y1="21.18" x2="20.97" y2="21.18"/></svg>