<svg id="Layer_1" data-name="Layer 1" xmlns="http://www.w3.org/2000/svg" viewBox="0 0 123.17 79.78"><defs><style>.cls-1{fill:#19367f;}</style></defs><title>circles-hands</title><path class="cls-1" d="M123.07,42.74A39.86,39.86,0,0,0,75.41.79l-.32.07A3.63,3.63,0,0,0,73.44,7h0a42.25,42.25,0,0,1,10.2,16.59l.28.8A2.69,2.69,0,0,0,87.61,26,2.8,2.8,0,0,0,89,22.52l-.25-.74A52.25,52.25,0,0,0,80.94,7.5a1.29,1.29,0,0,1,1-2.08q.69,0,1.38,0t1.65,0a4.3,4.3,0,0,1,3.36,2,57.82,57.82,0,0,1,6.12,12.36c.29.81.56,1.65.82,2.48a2.28,2.28,0,0,0,3.13,1.41,2.35,2.35,0,0,0,1.2-2.83c-.26-.87-.55-1.73-.85-2.58A62.16,62.16,0,0,0,94.51,8.9a.88.88,0,0,1,1.08-1.24,34.35,34.35,0,0,1,4.56,2.15A6.44,6.44,0,0,1,102.9,13q.69,1.65,1.28,3.34c.48,1.35.92,2.73,1.31,4.1a2.28,2.28,0,0,0,2.19,1.66,2.28,2.28,0,0,0,2.18-3c-.17-.6-.36-1.2-.54-1.8A34.49,34.49,0,1,1,48.78,40c.06-1.1.53-3.57,3.5-3.57,1.83,0,4.58,2.77,7,5.21,3.51,3.53,7.13,7.19,11.59,7.19a8.66,8.66,0,0,0,6.57-2.55,9.29,9.29,0,0,0,2.33-6.4A40,40,0,0,0,63.16,7.49h0A39.89,39.89,0,1,0,39.89,79.78,40.13,40.13,0,0,0,47.72,79l.49-.11a3.61,3.61,0,0,0,1.58-6h0l0-.05A42.75,42.75,0,0,1,39.53,56.2l-.23-.67A2.8,2.8,0,0,0,36,53.65a2.69,2.69,0,0,0-1.86,3.45l.31.9a52.23,52.23,0,0,0,7.7,14.17,1.37,1.37,0,0,1-1.06,2.19l-1.19,0q-.93,0-1.85-.05a3.81,3.81,0,0,1-3-1.68A57.81,57.81,0,0,1,28.76,60c-.28-.78-.54-1.57-.78-2.36A2.4,2.4,0,0,0,25,56a2.28,2.28,0,0,0-1.41,2.81c.27.89.57,1.79.88,2.68a62.1,62.1,0,0,0,4.18,9.3.9.9,0,0,1-1.1,1.27,34.37,34.37,0,0,1-4.74-2.26,5.54,5.54,0,0,1-2.36-2.63c-.52-1.23-1-2.48-1.45-3.74s-.89-2.64-1.27-4a2.37,2.37,0,0,0-2.62-1.76,2.28,2.28,0,0,0-1.81,2.87c.18.62.37,1.25.56,1.87a34.58,34.58,0,0,1,26-57.25A35.83,35.83,0,0,1,60,11.57h0c9,7,14.38,17.1,14.38,28.17V40a4.12,4.12,0,0,1-.86,2.53,3.54,3.54,0,0,1-2.65.88c-2.22,0-5.17-3-7.77-5.59C59.79,34.45,56.36,31,52.29,31c-6.34,0-8.79,5.28-8.89,8.82v.08a39.89,39.89,0,0,0,79.68,2.85Z"/></svg>