<svg id="Layer_1" data-name="Layer 1" xmlns="http://www.w3.org/2000/svg" viewBox="0 0 146.98 146.98"><defs><style>.cls-1{fill:#173480;}</style></defs><title>circle-diagram-people</title><path class="cls-1" d="M49.77,9.1a3.37,3.37,0,0,0,2.1-2.72,70.83,70.83,0,0,1,41.85-.44,3.37,3.37,0,1,0,.91-2.86,73.86,73.86,0,0,0-43.73.46A3.38,3.38,0,1,0,49.77,9.1Z"/><path class="cls-1" d="M142.95,49.47a3.4,3.4,0,1,0-2.82,1,70.47,70.47,0,0,1,.45,44.6,3.37,3.37,0,1,0,2.84,1A73.47,73.47,0,0,0,142.95,49.47Z"/><path class="cls-1" d="M97.2,137.86a3.37,3.37,0,0,0-2.1,2.72,70.47,70.47,0,0,1-44.6-.45,3.37,3.37,0,1,0-1,2.82,73.41,73.41,0,0,0,46.6.48,3.38,3.38,0,1,0,1.13-5.56Z"/><path class="cls-1" d="M8.62,95.87a3.37,3.37,0,0,0-2.67-2.15,70.83,70.83,0,0,1,.44-41.85,3.37,3.37,0,1,0-2.84-1,73.83,73.83,0,0,0-.46,43.73,3.38,3.38,0,1,0,5.53,1.24Z"/><path class="cls-1" d="M138.57,31.19a16.29,16.29,0,0,0-7.75-13.86,10.48,10.48,0,1,0-19-6.14,10.29,10.29,0,0,0,1.75,6.14,16.56,16.56,0,0,0-8,13.86V33h33ZM122.36,3.69a7.51,7.51,0,0,1,7.5,7.5,7.5,7.5,0,0,1-15,0A7.51,7.51,0,0,1,122.36,3.69ZM109.16,30A14.06,14.06,0,0,1,116,19.7a10.85,10.85,0,0,0,12.71,0A14,14,0,0,1,135.55,30Z"/><path class="cls-1" d="M51.57,90.32V92h43V90.32A21.57,21.57,0,0,0,83.83,71.61a13.6,13.6,0,0,0,3-8.51,13.73,13.73,0,1,0-27.46,0,13.57,13.57,0,0,0,3,8.51A21.65,21.65,0,0,0,51.57,90.32Zm21.59-38A10.76,10.76,0,0,1,83.91,63.11a10.75,10.75,0,0,1-21.5,0A10.76,10.76,0,0,1,73.16,52.36ZM64.58,73.92a13.89,13.89,0,0,0,17.18,0A19.3,19.3,0,0,1,91.72,89H54.61A19.34,19.34,0,0,1,64.58,73.92Z"/><path class="cls-1" d="M130.82,119a10.48,10.48,0,1,0-19-6.14A10.29,10.29,0,0,0,113.6,119a16.56,16.56,0,0,0-8,13.86V135h33v-2.14A16.29,16.29,0,0,0,130.82,119Zm-8.47-13.64a7.51,7.51,0,0,1,7.5,7.5,7.5,7.5,0,0,1-15,0A7.51,7.51,0,0,1,122.36,105.36ZM109.16,132A14.36,14.36,0,0,1,116,121.53a11.33,11.33,0,0,0,12.71.08A14.21,14.21,0,0,1,135.55,132Z"/><path class="cls-1" d="M31.23,17.33a10.58,10.58,0,0,0,2.21-6.14,10.42,10.42,0,1,0-20.84,0,10.25,10.25,0,0,0,1.87,6.14A16.44,16.44,0,0,0,6.57,31.19V33h32V31.19A15.93,15.93,0,0,0,31.23,17.33ZM23.16,3.69a7.51,7.51,0,0,1,7.5,7.5,7.5,7.5,0,0,1-15,0A7.51,7.51,0,0,1,23.16,3.69ZM10,30a14.06,14.06,0,0,1,6.84-10.3,10.37,10.37,0,0,0,6.35,2.07,10.33,10.33,0,0,0,6.35-2A14,14,0,0,1,36.36,30Z"/><path class="cls-1" d="M31.23,119a10.74,10.74,0,0,0,2.22-6.14,10.42,10.42,0,1,0-19,6.14,16.44,16.44,0,0,0-7.91,13.86V135h32v-2.14A15.93,15.93,0,0,0,31.23,119Zm-8.06-13.64a7.51,7.51,0,0,1,7.5,7.5,7.5,7.5,0,0,1-15,0A7.51,7.51,0,0,1,23.16,105.36ZM10,132a14.36,14.36,0,0,1,6.84-10.47,10.3,10.3,0,0,0,6.35,2,10.23,10.23,0,0,0,6.35-1.91A14.21,14.21,0,0,1,36.36,132Z"/></svg>