<?xml version="1.0" encoding="UTF-8" standalone="no"?>
<svg width="38px" height="25px" viewBox="0 0 38 25" version="1.1" xmlns="http://www.w3.org/2000/svg" xmlns:xlink="http://www.w3.org/1999/xlink">
    <!-- Generator: Sketch 40.1 (33804) - http://www.bohemiancoding.com/sketch -->
    <title>circles-icon</title>
    <desc>Created with Sketch.</desc>
    <defs></defs>
    <g id="Symbols" stroke="none" stroke-width="1" fill="none" fill-rule="evenodd" stroke-linecap="round">
        <g id="tab-bar-new" transform="translate(-17.000000, -13.000000)" stroke="#19367F">
            <g id="circles-icon" transform="translate(17.000000, 13.000000)">
                <path d="M18.7082,2.6581 C21.6102,4.7461 23.5002,8.1521 23.5002,12.0001 C23.5002,12.0001 23.6062,13.9171 21.5832,13.9171 C19.5602,13.9171 17.6972,10.0831 15.8332,10.0831 C13.9702,10.0831 13.9162,12.0001 13.9162,12.0001 C13.9162,18.3511 19.0652,23.5001 25.4162,23.5001 C31.7682,23.5001 36.9162,18.3511 36.9162,12.0001 C36.9162,5.6491 31.7682,0.5001 25.4162,0.5001 C24.4592,0.5001 23.5292,0.6171 22.6392,0.8371" id="Stroke-1"></path>
                <path d="M14.8234,23.1509 C13.9204,23.3789 12.9744,23.4999 12.0004,23.4999 C5.6484,23.4999 0.5004,18.3509 0.5004,11.9999 C0.5004,5.6489 5.6484,0.4999 12.0004,0.4999 C14.5034,0.4999 16.8204,1.2999 18.7084,2.6579" id="Stroke-3"></path>
                <path d="M11.0133,17.0598 C11.0423,17.1478 11.0723,17.2348 11.1033,17.3218 C11.8683,19.4828 13.1053,21.4218 14.6903,23.0128 C14.7353,23.0578 14.7813,23.1038 14.8273,23.1488" id="Stroke-5"></path>
                <path d="M7.6311,17.6601 C7.7131,17.9281 7.8001,18.1941 7.8931,18.4571 C8.5241,20.2421 9.4191,21.9011 10.5301,23.3901" id="Stroke-7"></path>
                <path d="M4.4548,18.2171 C4.5808,18.6591 4.7198,19.0961 4.8718,19.5261 C5.1278,20.2501 5.4208,20.9561 5.7488,21.6421" id="Stroke-9"></path>
                <path d="M26.4034,6.9402 C26.3744,6.8522 26.3444,6.7652 26.3134,6.6782 C25.5484,4.5172 24.3114,2.5782 22.7264,0.9872 C22.6814,0.9422 22.6354,0.8962 22.5894,0.8512" id="Stroke-11"></path>
                <path d="M29.7855,6.3399 C29.7035,6.0719 29.6165,5.8059 29.5235,5.5429 C28.8925,3.7579 27.9975,2.0989 26.8865,0.6099" id="Stroke-13"></path>
                <path d="M32.9619,5.7829 C32.8359,5.3409 32.6969,4.9039 32.5449,4.4739 C32.2889,3.7499 31.9959,3.0439 31.6679,2.3579" id="Stroke-15"></path>
            </g>
        </g>
    </g>
</svg>