<?xml version="1.0" encoding="UTF-8" standalone="no"?>
<svg width="36px" height="22px" viewBox="0 0 36 22" version="1.1" xmlns="http://www.w3.org/2000/svg" xmlns:xlink="http://www.w3.org/1999/xlink">
    <!-- Generator: Sketch 40.1 (33804) - http://www.bohemiancoding.com/sketch -->
    <title>circles-icon-filled</title>
    <desc>Created with Sketch.</desc>
    <defs></defs>
    <g id="Symbols" stroke="none" stroke-width="1" fill="none" fill-rule="evenodd">
        <g id="circles-icon-filled" fill="#1D1D1B">
            <path d="M12.417,11 C12.44,10.155 12.975,8.583 14.833,8.583 C15.954,8.583 16.922,9.558 17.945,10.589 C18.837,11.487 19.76,12.416 20.583,12.416 C21.056,12.416 21.413,12.291 21.646,12.045 C22.023,11.646 22.001,11.034 22.001,11.027 C22,7.469 20.286,4.128 17.416,2.064 C15.539,0.714 13.321,0 11,0 C4.935,0 0,4.935 0,11 C0,14.186 1.37,17.052 3.542,19.062 C3.496,18.939 3.444,18.817 3.4,18.693 C3.245,18.253 3.104,17.807 2.975,17.354 C2.898,17.088 3.053,16.812 3.318,16.736 C3.584,16.654 3.859,16.814 3.936,17.08 C4.059,17.512 4.194,17.938 4.344,18.359 C4.576,19.015 4.845,19.663 5.141,20.293 C6.143,20.927 7.253,21.402 8.438,21.687 C7.609,20.415 6.928,19.055 6.422,17.624 C6.326,17.355 6.237,17.081 6.152,16.807 C6.072,16.543 6.221,16.263 6.484,16.182 C6.746,16.104 7.028,16.25 7.109,16.514 C7.188,16.774 7.273,17.033 7.364,17.289 C7.952,18.949 8.782,20.509 9.823,21.935 C10.21,21.976 10.602,22 11,22 C11.625,22 12.243,21.928 12.854,21.824 C11.445,20.272 10.327,18.451 9.632,16.488 L9.539,16.218 C9.452,15.956 9.594,15.673 9.855,15.585 C10.12,15.498 10.4,15.64 10.488,15.901 L10.574,16.152 C11.301,18.205 12.5,20.108 14.045,21.66 L14.177,21.791 C14.183,21.797 14.187,21.805 14.191,21.812 C15.222,21.499 16.192,21.048 17.077,20.472 C14.248,18.275 12.417,14.851 12.417,11" id="Fill-1"></path>
            <path d="M23,11 C23.002,11.015 23.049,12.017 22.372,12.732 C21.943,13.186 21.341,13.416 20.583,13.416 C19.343,13.416 18.271,12.337 17.235,11.293 C16.401,10.452 15.538,9.583 14.833,9.583 C13.495,9.583 13.421,10.867 13.417,11.014 C13.417,17.065 18.352,22 24.417,22 C30.482,22 35.417,17.065 35.417,11 C35.417,7.814 34.047,4.948 31.875,2.938 C31.921,3.061 31.973,3.182 32.017,3.306 C32.172,3.746 32.313,4.192 32.442,4.646 C32.519,4.911 32.364,5.188 32.099,5.263 C32.053,5.276 32.007,5.282 31.962,5.282 C31.744,5.282 31.544,5.139 31.481,4.919 C31.358,4.487 31.223,4.061 31.073,3.64 C30.841,2.984 30.572,2.336 30.276,1.707 C29.274,1.073 28.165,0.598 26.979,0.313 C27.809,1.586 28.489,2.945 28.995,4.375 C29.091,4.646 29.18,4.918 29.265,5.193 C29.345,5.458 29.196,5.737 28.933,5.818 C28.884,5.833 28.834,5.84 28.786,5.84 C28.572,5.84 28.374,5.701 28.308,5.486 C28.229,5.225 28.144,4.966 28.053,4.71 C27.466,3.051 26.637,1.493 25.595,0.065 C25.208,0.024 24.815,0 24.417,0 C23.793,0 23.175,0.071 22.563,0.175 C23.97,1.725 25.089,3.546 25.785,5.511 L25.866,5.747 C25.954,6.009 25.819,6.309 25.558,6.396 C25.501,6.416 25.443,6.425 25.388,6.425 C25.185,6.425 24.999,6.305 24.93,6.1 C24.93,6.099 24.918,6.066 24.918,6.066 L24.843,5.847 C24.116,3.794 22.917,1.891 21.372,0.34 L21.24,0.209 C21.221,0.19 21.212,0.165 21.196,0.144 C20.164,0.463 19.193,0.922 18.309,1.504 C21.246,3.769 23,7.281 23,11" id="Fill-3"></path>
        </g>
    </g>
</svg>