<svg id="Layer_1" data-name="Layer 1" xmlns="http://www.w3.org/2000/svg" viewBox="0 0 112 116"><defs><style>.cls-1{fill:#19367f;fill-rule:evenodd;}</style></defs><title>circle-diagram</title><path class="cls-1" d="M106.41,84.36A56,56,0,0,0,59.91,4.15a5,5,0,0,0-9.85.16,56,56,0,0,0-44.48,80,5,5,0,0,0,5,8.35,55.92,55.92,0,0,0,90.81,0A5,5,0,0,0,103,93a5,5,0,0,0,3.41-8.64ZM56,114A54,54,0,0,1,12.33,91.71a5,5,0,0,0-5-8.39,54,54,0,0,1,42.9-77,5,5,0,0,0,9.66-.16A54,54,0,0,1,104.7,83.32a5,5,0,0,0-5,8.39A54,54,0,0,1,56,114Z"/></svg>