<svg id="Layer_1" data-name="Layer 1" xmlns="http://www.w3.org/2000/svg" viewBox="0 0 244 248.94"><defs><style>.cls-1{fill:#19367f;}</style></defs><title>circles-logo</title><path class="cls-1" d="M24.48,201.07a23.49,23.49,0,0,1,18.18,8l-7.86,6.29a13.57,13.57,0,0,0-10.32-4.42c-7.67,0-14.45,5.41-14.45,14a14.2,14.2,0,0,0,14.45,14.35,13.65,13.65,0,0,0,10.32-4.52l8,6.19a23.63,23.63,0,0,1-18.28,8.06C11.3,248.94,0,239.4,0,224.85S11.3,201.07,24.48,201.07Z"/><path class="cls-1" d="M52.5,177.08a6.4,6.4,0,1,1,0,12.78,6.4,6.4,0,1,1,0-12.78Zm5,25h-10V248h10Z"/><path class="cls-1" d="M75.3,248H65.18V202H75.3v10.52c2.36-8.16,6.88-11.5,12.58-11.5,3.24,0,6.69.79,8.16,1.77l-1.67,9.34a14.63,14.63,0,0,0-6.78-1.57c-8.65,0-12.29,8.65-12.29,20.84Z"/><path class="cls-1" d="M120,201.07a23.49,23.49,0,0,1,18.18,8l-7.86,6.29A13.57,13.57,0,0,0,120,210.9c-7.67,0-14.45,5.41-14.45,14A14.2,14.2,0,0,0,120,239.21a13.65,13.65,0,0,0,10.32-4.52l8,6.19A23.63,23.63,0,0,1,120,248.94c-13.17,0-24.48-9.54-24.48-24.08S106.86,201.07,120,201.07Z"/><path class="cls-1" d="M143.33,177.08h10.12V248H143.33Z"/><path class="cls-1" d="M205.27,228.59H168.8c1,7.08,6.68,11.5,14.06,11.5,5.11,0,10.13-2.36,12.49-6.59,2.56,1.18,5.6,2.46,8.26,3.64-4,8.06-12.58,11.8-21.23,11.8-13.07,0-23.59-9.54-23.59-24.08s10.52-23.79,23.59-23.79,23,9.24,23,23.79C205.36,225.94,205.36,227.61,205.27,228.59Zm-9.83-7.37c-1-7.18-6.19-11.3-13.07-11.3-7.08,0-12.58,4.23-13.57,11.3Z"/><path class="cls-1" d="M209.4,213.16c.59-6.78,8-12.09,16.42-12.09,8.16,0,16.12,3.73,16.71,13.57h-9.63c-.39-3.44-3.54-4.91-6.69-4.91-2.56,0-5.5,1-6.49,2.56a4.71,4.71,0,0,0-.39,4.13c.59,1.77,3.15,2.85,5.6,3.54l7.08,1.77c9.93,2.46,12,8.75,12,13.37,0,8.85-7.77,13.86-18.29,13.86-8.55,0-17.4-5.41-17.6-15h9.34c.49,3.93,3.73,6.59,9,6.59,4.62,0,8.16-2.06,8.16-5.5,0-2.95-3-4.62-6.39-5.41l-6.19-1.47C212.35,225.44,208.81,220.53,209.4,213.16Z"/><path class="cls-1" d="M220.28,68A63.43,63.43,0,0,0,144.43,1.26l-.51.11a5.78,5.78,0,0,0-2.62,9.73h0c7.77,7.8,12.58,16.08,16.23,26.4q.22.63.44,1.27a4.29,4.29,0,0,0,5.88,2.53A4.46,4.46,0,0,0,166,35.83l-.41-1.18a83.15,83.15,0,0,0-12.38-22.73,2.06,2.06,0,0,1,1.52-3.31q1.1,0,2.2,0,1.32,0,2.62.07a6.84,6.84,0,0,1,5.35,3.15,92,92,0,0,1,9.74,19.66c.46,1.29.89,2.62,1.3,3.95a3.63,3.63,0,0,0,5,2.24,3.75,3.75,0,0,0,1.91-4.51c-.42-1.38-.88-2.76-1.35-4.1a98.91,98.91,0,0,0-6.7-14.87,1.4,1.4,0,0,1,1.72-2,54.66,54.66,0,0,1,7.25,3.41,10.25,10.25,0,0,1,4.39,5q1.09,2.63,2,5.31c.76,2.15,1.46,4.34,2.08,6.52a3.63,3.63,0,0,0,3.49,2.64,3.63,3.63,0,0,0,3.46-4.73c-.27-1-.57-1.91-.87-2.87a54.88,54.88,0,1,1-96.32,36.06c.1-1.76.84-5.68,5.58-5.68,2.91,0,7.29,4.41,11.14,8.29,5.58,5.62,11.35,11.44,18.45,11.44,5.47,0,8.7-2.21,10.45-4.05a14.78,14.78,0,0,0,3.7-10.18,63.67,63.67,0,0,0-26.45-51.47h0a63.48,63.48,0,1,0-37,115,63.86,63.86,0,0,0,12.47-1.24l.78-.17a5.74,5.74,0,0,0,2.51-9.56h0l-.08-.08A68,68,0,0,1,87.34,89.44L87,88.37a4.45,4.45,0,0,0-5.25-3,4.29,4.29,0,0,0-3,5.49q.24.71.49,1.42A83.11,83.11,0,0,0,91.5,114.84a2.18,2.18,0,0,1-1.69,3.49q-.95,0-1.9,0-1.48,0-2.95-.08a6.07,6.07,0,0,1-4.73-2.68,92,92,0,0,1-10-20.12c-.44-1.24-.86-2.5-1.24-3.75a3.81,3.81,0,0,0-4.76-2.56A3.63,3.63,0,0,0,62,93.66c.43,1.41.9,2.85,1.4,4.26A98.82,98.82,0,0,0,70,112.72a1.43,1.43,0,0,1-1.75,2,54.7,54.7,0,0,1-7.55-3.6A8.82,8.82,0,0,1,57,106.94c-.83-2-1.6-3.95-2.31-5.94s-1.41-4.19-2-6.3a3.78,3.78,0,0,0-4.17-2.8,3.63,3.63,0,0,0-2.87,4.57c.28,1,.59,2,.9,3A55,55,0,0,1,87.91,8.35a57,57,0,0,1,32,10.07h0c14.33,11.14,22.88,27.21,22.88,44.83v.35a6.55,6.55,0,0,1-1.36,4,5.63,5.63,0,0,1-4.22,1.4c-3.53,0-8.22-4.71-12.36-8.89-5.28-5.32-10.75-10.82-17.23-10.82-10.1,0-14,8.4-14.15,14v.12A63.48,63.48,0,0,0,220.28,68Z"/></svg>