<?xml version="1.0" encoding="utf-8"?>
<!-- Generator: Adobe Illustrator 20.1.0, SVG Export Plug-In . SVG Version: 6.00 Build 0)  -->
<!DOCTYPE svg PUBLIC "-//W3C//DTD SVG 1.1//EN" "http://www.w3.org/Graphics/SVG/1.1/DTD/svg11.dtd">
<svg version="1.1" id="Layer_1" xmlns="http://www.w3.org/2000/svg" xmlns:xlink="http://www.w3.org/1999/xlink" x="0px" y="0px"
	 viewBox="0 0 22.7 6.7" style="enable-background:new 0 0 22.7 6.7;" xml:space="preserve">
<style type="text/css">
	.st0{fill:none;stroke:#19367F;stroke-width:2;}
</style>
<title>symbol</title>
<desc>Created with Sketch.</desc>
<g id="Symbols">
	<g id="symbol">
		<g id="Page-1">
			<path id="Stroke-1" class="st0" d="M5.7,3.4C5.7,2.1,4.7,1,3.4,1S1,2.1,1,3.4s1.1,2.4,2.4,2.4S5.7,4.7,5.7,3.4L5.7,3.4z"/>
			<path id="Stroke-3" class="st0" d="M13.7,3.4c0-1.3-1.1-2.4-2.4-2.4S9,2.1,9,3.4s1.1,2.4,2.4,2.4S13.7,4.7,13.7,3.4L13.7,3.4z"/>
			<path id="Stroke-5" class="st0" d="M21.7,3.4c0-1.3-1.1-2.4-2.4-2.4S17,2.1,17,3.4s1.1,2.4,2.4,2.4S21.7,4.7,21.7,3.4L21.7,3.4z"
				/>
		</g>
	</g>
</g>
</svg>
