<?xml version="1.0" encoding="UTF-8" standalone="no"?>
<svg width="21px" height="5px" viewBox="0 0 21 5" version="1.1" xmlns="http://www.w3.org/2000/svg" xmlns:xlink="http://www.w3.org/1999/xlink">
    <!-- Generator: Sketch 40.1 (33804) - http://www.bohemiancoding.com/sketch -->
    <title>symbol</title>
    <desc>Created with Sketch.</desc>
    <defs></defs>
    <g id="Symbols" stroke="none" stroke-width="1" fill="none" fill-rule="evenodd">
        <g id="symbol" stroke-width="2" stroke="#19367F">
            <g id="Page-1">
                <path d="M4.7407,2.37034 C4.7407,1.06134 3.6797,0.00034 2.3707,0.00034 C1.0617,0.00034 -0.0003,1.06134 -0.0003,2.37034 C-0.0003,3.67934 1.0617,4.74034 2.3707,4.74034 C3.6797,4.74034 4.7407,3.67934 4.7407,2.37034 L4.7407,2.37034 Z" id="Stroke-1"></path>
                <path d="M12.7407,2.37034 C12.7407,1.06134 11.6797,0.00034 10.3707,0.00034 C9.0617,0.00034 7.9997,1.06134 7.9997,2.37034 C7.9997,3.67934 9.0617,4.74034 10.3707,4.74034 C11.6797,4.74034 12.7407,3.67934 12.7407,2.37034 L12.7407,2.37034 Z" id="Stroke-3"></path>
                <path d="M20.7407,2.37034 C20.7407,1.06134 19.6797,0.00034 18.3707,0.00034 C17.0617,0.00034 15.9997,1.06134 15.9997,2.37034 C15.9997,3.67934 17.0617,4.74034 18.3707,4.74034 C19.6797,4.74034 20.7407,3.67934 20.7407,2.37034 L20.7407,2.37034 Z" id="Stroke-5"></path>
            </g>
        </g>
    </g>
</svg>