<svg id="Layer_1" data-name="Layer 1" xmlns="http://www.w3.org/2000/svg" viewBox="0 0 37.19 28"><defs><style>.cls-1,.cls-2{fill:none;stroke:#1d1d1b;stroke-linecap:round;stroke-miterlimit:10;}.cls-1{stroke-width:2px;}.cls-2{stroke-width:1.2px;}</style></defs><title>expression-photo</title><path class="cls-1" d="M33.77,5.89H27L24.9,2.59A3,3,0,0,0,22.42,1H14.76a3,3,0,0,0-2.47,1.59L10.17,5.89H3.42A2.55,2.55,0,0,0,1,8.55V24.34A2.55,2.55,0,0,0,3.42,27H33.77a2.55,2.55,0,0,0,2.42-2.66V8.55A2.55,2.55,0,0,0,33.77,5.89Z"/><circle class="cls-1" cx="18.79" cy="15.66" r="8.21"/><circle class="cls-2" cx="18.79" cy="15.66" r="5.93"/><circle class="cls-1" cx="31.2" cy="10.8" r="1.06"/><polygon class="cls-1" points="4.47 4.59 5.43 2.68 7.33 2.68 8.28 4.59 4.47 4.59"/></svg>