<svg id="Layer_1" data-name="Layer 1" xmlns="http://www.w3.org/2000/svg" viewBox="0 0 36.82 28"><defs><style>.cls-1{fill:none;stroke:#1d1d1b;stroke-linecap:round;stroke-linejoin:round;stroke-width:2px;}</style></defs><title>expression-gif</title><rect class="cls-1" x="1" y="1" width="34.82" height="26" rx="3.98" ry="3.98"/><path d="M17.31,13.47v5H16L15.88,18A4.61,4.61,0,1,1,17,11l-1.31,1.06a2.83,2.83,0,0,0-2.21-1,2.89,2.89,0,0,0-2.93,3,2.89,2.89,0,0,0,2.93,3,2.83,2.83,0,0,0,2.16-1v-1H13.48V13.47Z"/><path d="M18.92,9.5h1.74v9H18.92Z"/><path d="M24.21,11.06v2.16h3.2v1.56h-3.2V18.5H22.47v-9h5.45v1.56Z"/></svg>