<svg id="Layer_1" data-name="Layer 1" xmlns="http://www.w3.org/2000/svg" viewBox="0 0 26.67 28"><defs><style>.cls-1,.cls-2{fill:none;}.cls-1,.cls-2,.cls-3{stroke:#1d1d1b;stroke-miterlimit:10;stroke-width:2px;}.cls-2{stroke-linecap:round;}.cls-3{fill:#1d1e1b;}</style></defs><title>expression-calendar</title><path class="cls-1" d="M1,8.5H25.67a0,0,0,0,1,0,0V26.12a.88.88,0,0,1-.88.88H1.88A.88.88,0,0,1,1,26.12V8.5A0,0,0,0,1,1,8.5Z"/><line class="cls-2" x1="5.8" y1="1" x2="5.8" y2="5.8"/><line class="cls-2" x1="20.87" y1="1" x2="20.87" y2="5.8"/><path class="cls-3" d="M1.79,4H24.88a.79.79,0,0,1,.79.79V8.5a0,0,0,0,1,0,0H1a0,0,0,0,1,0,0V4.74A.79.79,0,0,1,1.79,4Z"/><line class="cls-2" x1="4.39" y1="13" x2="22.28" y2="13"/><line class="cls-2" x1="4.39" y1="17.62" x2="22.28" y2="17.62"/><line class="cls-2" x1="4.39" y1="22.25" x2="22.28" y2="22.25"/></svg>