<svg id="Layer_1" data-name="Layer 1" xmlns="http://www.w3.org/2000/svg" viewBox="0 0 27.95 27"><defs><style>.cls-1{fill:none;stroke:#1d1d1b;stroke-linecap:round;stroke-linejoin:round;}</style></defs><title>location-map</title><path class="cls-1" d="M14.61.5A4.57,4.57,0,0,0,10,5.07c0,3.88,3.65,8.49,4.57,9.58.91-1.1,4.57-5.73,4.57-9.58A4.57,4.57,0,0,0,14.61.5Z"/><circle class="cls-1" cx="14.67" cy="5.13" r="1.96"/><polyline class="cls-1" points="18.47 12.06 27.45 8.16 27.45 22.6 18.47 26.5 9.48 22.6 0.5 26.5 0.5 12.06 9.48 8.16"/><line class="cls-1" x1="16.93" y1="11.39" x2="18.47" y2="12.06"/><line class="cls-1" x1="9.48" y1="8.16" x2="10.91" y2="8.78"/><line class="cls-1" x1="9.48" y1="8.16" x2="9.48" y2="22.6"/><line class="cls-1" x1="18.47" y1="12.06" x2="18.47" y2="26.5"/></svg>