<svg id="Layer_1" data-name="Layer 1" xmlns="http://www.w3.org/2000/svg" viewBox="0 0 33.26 35"><defs><style>.cls-1,.cls-2{fill:none;}.cls-1,.cls-2,.cls-3{stroke:#1d1d1b;stroke-miterlimit:10;}.cls-2{stroke-linecap:round;}.cls-3{fill:#1d1e1b;}</style></defs><title>meeting</title><path class="cls-1" d="M.5,10.3H32.76a0,0,0,0,1,0,0V33.62a.88.88,0,0,1-.88.88H1.38a.88.88,0,0,1-.88-.88V10.3a0,0,0,0,1,0,0Z"/><line class="cls-2" x1="6.77" y1="0.5" x2="6.77" y2="6.77"/><line class="cls-2" x1="26.49" y1="0.5" x2="26.49" y2="6.77"/><path class="cls-3" d="M1.29,4.36H32a.79.79,0,0,1,.79.79V10.3a0,0,0,0,1,0,0H.5a0,0,0,0,1,0,0V5.15A.79.79,0,0,1,1.29,4.36Z"/><line class="cls-2" x1="4.93" y1="16.19" x2="28.33" y2="16.19"/><line class="cls-2" x1="4.93" y1="22.24" x2="28.33" y2="22.24"/><line class="cls-2" x1="4.93" y1="28.29" x2="28.33" y2="28.29"/></svg>