<?xml version="1.0" encoding="UTF-8" standalone="no"?>
<svg width="27px" height="25px" viewBox="0 0 27 25" version="1.1" xmlns="http://www.w3.org/2000/svg" xmlns:xlink="http://www.w3.org/1999/xlink">
    <!-- Generator: Sketch 40.1 (33804) - http://www.bohemiancoding.com/sketch -->
    <title>network-icon-filled</title>
    <desc>Created with Sketch.</desc>
    <defs></defs>
    <g id="greater-circle" stroke="none" stroke-width="1" fill="none" fill-rule="evenodd">
        <g transform="translate(-250.000000, -629.000000)" id="network-icon-filled" stroke="#19367F">
            <g transform="translate(251.000000, 630.000000)">
                <path d="M5.68884,20.4 C5.68884,18.8292 4.41564,17.556 2.84484,17.556 C1.27404,17.556 -0.00036,18.8292 -0.00036,20.4 C-0.00036,21.9708 1.27404,23.244 2.84484,23.244 C4.41564,23.244 5.68884,21.9708 5.68884,20.4 L5.68884,20.4 Z" id="Stroke-1" fill="#19367F"></path>
                <path d="M15.28884,2.84448 C15.28884,1.27368 14.01564,0.00048 12.44484,0.00048 C10.87404,0.00048 9.59964,1.27368 9.59964,2.84448 C9.59964,4.41528 10.87404,5.68848 12.44484,5.68848 C14.01564,5.68848 15.28884,4.41528 15.28884,2.84448 L15.28884,2.84448 Z" id="Stroke-3" fill="#19367F"></path>
                <path d="M24.88884,20.4 C24.88884,18.8292 23.61564,17.556 22.04484,17.556 C20.47404,17.556 19.19964,18.8292 19.19964,20.4 C19.19964,21.9708 20.47404,23.244 22.04484,23.244 C23.61564,23.244 24.88884,21.9708 24.88884,20.4 L24.88884,20.4 Z" id="Stroke-5" fill="#19367F"></path>
                <path d="M2.84448,20.4 L11.08008,5.3388" id="Stroke-7" stroke-linecap="round"></path>
                <path d="M20.67924,17.9034 L12.44484,2.8446" id="Stroke-9" stroke-linecap="round"></path>
                <path d="M5.68848,20.4 L22.04448,20.4" id="Stroke-11" stroke-linecap="round"></path>
            </g>
        </g>
    </g>
</svg>