<?xml version="1.0" encoding="UTF-8" standalone="no"?>
<svg width="24px" height="24px" viewBox="0 0 24 24" version="1.1" xmlns="http://www.w3.org/2000/svg" xmlns:xlink="http://www.w3.org/1999/xlink">
    <!-- Generator: Sketch 40.1 (33804) - http://www.bohemiancoding.com/sketch -->
    <title>new-post-icon-filled</title>
    <desc>Created with Sketch.</desc>
    <defs></defs>
    <g id="Symbols" stroke="none" stroke-width="1" fill="none" fill-rule="evenodd">
        <path d="M11.5,11.5 L11.5,6 C11.5,5.72385763 11.7238576,5.5 12,5.5 C12.2761424,5.5 12.5,5.72385763 12.5,6 L12.5,11.5 L18,11.5 C18.2761424,11.5 18.5,11.7238576 18.5,12 C18.5,12.2761424 18.2761424,12.5 18,12.5 L12.5,12.5 L12.5,18 C12.5,18.2761424 12.2761424,18.5 12,18.5 C11.7238576,18.5 11.5,18.2761424 11.5,18 L11.5,12.5 L6,12.5 C5.72385763,12.5 5.5,12.2761424 5.5,12 C5.5,11.7238576 5.72385763,11.5 6,11.5 L11.5,11.5 Z M24,12 C24,18.62775 18.62775,24 12,24 C5.37225,24 0,18.62775 0,12 C0,5.37225 5.37225,0 12,0 C18.62775,0 24,5.37225 24,12 Z" id="new-post-icon-filled" fill="#19367F"></path>
    </g>
</svg>