<svg id="Layer_1" data-name="Layer 1" xmlns="http://www.w3.org/2000/svg" viewBox="0 0 25.89 24.24"><defs><style>.cls-1{fill:#19367f;}</style></defs><title>tab-bar-network-filled</title><path class="cls-1" d="M22.54,17.56a3.31,3.31,0,0,0-1.14.21L15,6a3.35,3.35,0,1,0-4,0L4.49,17.77a3.31,3.31,0,0,0-1.14-.21A3.35,3.35,0,0,0,0,20.9,3.18,3.18,0,0,0,3.34,24a3.2,3.2,0,0,0,3.29-3H19.25a3.2,3.2,0,0,0,3.29,3,3.25,3.25,0,1,0,0-6.49ZM11.8,6.47a3.16,3.16,0,0,0,2.28,0l6.44,11.58A2.65,2.65,0,0,0,19.25,20H6.64a2.65,2.65,0,0,0-1.28-1.95Z"/></svg>