<svg id="Layer_1" data-name="Layer 1" xmlns="http://www.w3.org/2000/svg" viewBox="0 0 35.42 22"><defs><style>.cls-1{fill:#37464b;fill-rule:evenodd;}</style></defs><title>tab-bar-circles-filled</title><path class="cls-1" d="M12.42,11a2.38,2.38,0,0,1,2.42-2.42c1.12,0,2.09,1,3.11,2s1.82,1.83,2.64,1.83A1.4,1.4,0,0,0,21.65,12,1.56,1.56,0,0,0,22,11a11.05,11.05,0,0,0-4.58-9,11,11,0,0,0-13.87,17l-.14-.37Q3.17,18,3,17.35a.5.5,0,1,1,1-.27c.12.43.26.86.41,1.28.23.66.5,1.3.8,1.93a11,11,0,0,0,3.3,1.39,19.12,19.12,0,0,1-2-4.06c-.1-.27-.18-.54-.27-.82a.5.5,0,0,1,1-.29c.08.26.16.52.25.78a18.16,18.16,0,0,0,2.46,4.65A11.16,11.16,0,0,0,11,22a11,11,0,0,0,1.85-.18,15.88,15.88,0,0,1-3.22-5.34l-.09-.27a.5.5,0,0,1,.95-.32l.09.25A14.91,14.91,0,0,0,14,21.66l.13.13v0a11.3,11.3,0,0,0,2.89-1.34A12,12,0,0,1,12.42,11"/><path class="cls-1" d="M23,11a2.56,2.56,0,0,1-.63,1.73,2.35,2.35,0,0,1-1.79.68c-1.24,0-2.31-1.08-3.35-2.12-.83-.84-1.7-1.71-2.4-1.71A1.39,1.39,0,0,0,13.42,11,11,11,0,1,0,31.88,2.94l.14.37q.23.66.43,1.34a.5.5,0,0,1-.34.62l-.14,0a.5.5,0,0,1-.48-.36c-.12-.43-.26-.86-.41-1.28-.23-.66-.5-1.3-.8-1.93A10.94,10.94,0,0,0,27,.31a19.11,19.11,0,0,1,2,4.06c.1.27.18.54.27.82a.5.5,0,0,1-.33.63l-.15,0a.5.5,0,0,1-.48-.35q-.12-.39-.26-.78A18.14,18.14,0,0,0,25.59.07,11.18,11.18,0,0,0,24.42,0a11.06,11.06,0,0,0-1.85.17,15.89,15.89,0,0,1,3.22,5.34l.08.24a.51.51,0,0,1-.48.68.48.48,0,0,1-.46-.32v0l-.07-.22A14.9,14.9,0,0,0,21.37.34L21.24.21l0-.07A11.33,11.33,0,0,0,18.31,1.5,12,12,0,0,1,23,11"/></svg>