<svg id="Layer_1" data-name="Layer 1" xmlns="http://www.w3.org/2000/svg" xmlns:xlink="http://www.w3.org/1999/xlink" viewBox="0 0 24 24"><defs><style>.cls-1,.cls-2,.cls-4{fill:#37464b;}.cls-1{clip-rule:evenodd;}.cls-2{fill-rule:evenodd;}.cls-3{clip-path:url(#clip-path);}.cls-5{clip-path:url(#clip-path-2);}</style><clipPath id="clip-path"><path class="cls-1" d="M14.5,14.31a4.47,4.47,0,1,0-5,0,4.54,4.54,0,0,0,5,0"/></clipPath><clipPath id="clip-path-2"><path class="cls-1" d="M24,12A12,12,0,1,0,1.65,18.05,13.38,13.38,0,0,1,8,14.47a5.58,5.58,0,1,1,8,0,13.38,13.38,0,0,1,6.33,3.58A11.91,11.91,0,0,0,24,12"/></clipPath></defs><title>tab-bar-account-filled</title><path class="cls-2" d="M14.5,14.31a4.47,4.47,0,1,0-5,0,4.54,4.54,0,0,0,5,0"/><g class="cls-3"><rect class="cls-4" x="2.53" y="1.14" width="18.93" height="18.92"/></g><path class="cls-2" d="M24,12A12,12,0,1,0,1.65,18.05,13.38,13.38,0,0,1,8,14.47a5.58,5.58,0,1,1,8,0,13.38,13.38,0,0,1,6.33,3.58A11.91,11.91,0,0,0,24,12"/><g class="cls-5"><rect class="cls-4" x="-5" y="-5" width="34" height="28.05"/></g><path class="cls-2" d="M6.25,22.53l.06,0q.48.26,1,.48l.1,0c.33.14.66.26,1,.37l.05,0c.33.1.67.19,1,.26l.21,0c.34.07.68.12,1,.16l.2,0c.36,0,.73.06,1.1.06s.74,0,1.1-.06l.2,0c.35,0,.69-.09,1-.16l.21,0c.34-.07.68-.16,1-.26l.05,0c.34-.11.67-.23,1-.37l.1,0q.51-.22,1-.48l.06,0a12.07,12.07,0,0,0,4-3.53,12.44,12.44,0,0,0-6.8-3.65,5.67,5.67,0,0,1-5.85,0A12.44,12.44,0,0,0,2.28,19a12.08,12.08,0,0,0,4,3.53"/></svg>