<svg id="Layer_1" data-name="Layer 1" xmlns="http://www.w3.org/2000/svg" viewBox="0 0 37.42 24"><defs><style>.cls-1{fill:none;stroke:#19367f;stroke-linecap:round;stroke-miterlimit:10;}</style></defs><title>tab-bar-circles</title><path class="cls-1" d="M18.71,2.66A11.49,11.49,0,0,1,23.5,12a1.79,1.79,0,0,1-1.92,1.92c-2,0-3.89-3.83-5.75-3.83A1.92,1.92,0,0,0,13.92,12,11.48,11.48,0,1,0,22.64.84"/><path class="cls-1" d="M14.82,23.15A11.5,11.5,0,1,1,18.71,2.66"/><path class="cls-1" d="M11,17.06l.09.26A15.31,15.31,0,0,0,14.69,23l.14.14"/><path class="cls-1" d="M7.63,17.66q.12.4.26.8a18.63,18.63,0,0,0,2.64,4.93"/><path class="cls-1" d="M4.45,18.22q.19.66.42,1.31a21.59,21.59,0,0,0,.88,2.12"/><path class="cls-1" d="M26.4,6.94l-.09-.26A15.31,15.31,0,0,0,22.73,1L22.59.85"/><path class="cls-1" d="M29.79,6.34q-.12-.4-.26-.8A18.63,18.63,0,0,0,26.89.61"/><path class="cls-1" d="M33,5.78q-.19-.66-.42-1.31a21.59,21.59,0,0,0-.88-2.12"/></svg>